<svg xmlns="http://www.w3.org/2000/svg"
aria-label="tink" role="img"
viewBox="0 0 512 512"
fill="#fff"><rect
width="512" height="512"
rx="15%"
fill="#040606"/><path d="M323 61c-5 5-49 30-72 42l-25 13 4 16 3 20-9 15c-7 9-8 10-9 32-2 21-2 23 1 26 7 5 45 4 79-2a913 913 0 0 0 123-32 424 424 0 0 1-245 112c-37 4-62-2-64-14-1-6 14-26 40-54l19-19 2-22c1-11 4-22 5-24 2-2 4-16 6-31l5-32c2-3 10-7 38-16 66-24 104-35 99-30z"/>
<path d="M149 368v-25c-8 5-16 7-27 7v18h-12v3h12v52c0 11 1 17 5 21 3 4 9 6 16 6 10 0 17-5 22-12l-3-2c-3 3-6 4-8 4-3 0-5-1-5-5v-64h15v-3zM189 328c-11 0-17 4-17 13s6 13 17 13 17-4 17-13-6-13-17-13zm15 38a140 140 0 0 1-36 2v3c6 0 8 4 8 14v48c0 9-2 11-8 11v4l22-1 22 1v-4c-6 0-8-2-8-11zM279 366c-11 0-20 3-25 11v-11a140 140 0 0 1-36 2v3c7 0 9 4 9 14v48c0 9-3 11-9 11v4l23-1 20 1v-4c-5 0-7-2-7-11v-48c0-7 6-11 11-11 6 0 8 3 8 9v50c0 9-2 11-7 11v4l22-1 21 1v-4c-6 0-9-2-9-11v-41c0-11-1-16-4-20s-8-6-17-6zM374 390l4-4c8-8 15-13 23-15v-3a417 417 0 0 1-40 0v3c7 1 12 5 12 10 0 3-1 6-5 10l-12 11c-2 2-4 2-6 2v-76a134 134 0 0 1-36 1v4c6 0 8 4 8 13v87c0 9-2 11-8 11v4l22-1 22 1v-4c-6 0-8-2-8-11v-26c2 0 3 1 5 4l13 28 1 2c0 2-2 3-5 3v4l22-1 18 1v-4c-3-1-4-5-6-8z"/></svg>