<?xml version="1.0" encoding="UTF-8" standalone="no"?><!DOCTYPE svg PUBLIC "-//W3C//DTD SVG 1.1//EN" "http://www.w3.org/Graphics/SVG/1.1/DTD/svg11.dtd"><svg width="100%" height="100%" viewBox="0 0 65 64" version="1.1" xmlns="http://www.w3.org/2000/svg" xmlns:xlink="http://www.w3.org/1999/xlink" xml:space="preserve" xmlns:serif="http://www.serif.com/" style="fill-rule:evenodd;clip-rule:evenodd;stroke-linejoin:round;stroke-miterlimit:0;"><rect id="Favicon-64" x="0.495" y="0" width="64" height="64" style="fill:none;"/><clipPath id="_clip1"><rect x="0.495" y="0" width="64" height="64"/></clipPath><g clip-path="url(#_clip1)"><g id="Tetralogical-Logo" serif:id="Tetralogical Logo"><path id="Mask" d="M42.747,8c-0.164,0.639 -0.252,1.31 -0.252,2c0,4.415 3.585,8 8,8c1.457,0 2.823,-0.39 4,-1.072l0,32.601c-1.062,-0.95 -2.464,-1.529 -4,-1.529c-3.311,0 -6,2.689 -6,6c0,1.536 0.579,2.938 1.529,4l-18.601,0c0.682,-1.177 1.072,-2.543 1.072,-4c0,-4.415 -3.585,-8 -8,-8c-4.415,0 -8,3.585 -8,8c0,1.457 0.39,2.823 1.072,4l-5.072,0l0,-26.342c0.626,0.221 1.299,0.342 2,0.342c3.311,0 6,-2.689 6,-6c0,-3.311 -2.689,-6 -6,-6c-0.701,0 -1.374,0.121 -2,0.342l0,-12.342l34.252,0Z" style="fill:none;"/><clipPath id="_clip2"><path d="M42.747,8c-0.164,0.639 -0.252,1.31 -0.252,2c0,4.415 3.585,8 8,8c1.457,0 2.823,-0.39 4,-1.072l0,32.601c-1.062,-0.95 -2.464,-1.529 -4,-1.529c-3.311,0 -6,2.689 -6,6c0,1.536 0.579,2.938 1.529,4l-18.601,0c0.682,-1.177 1.072,-2.543 1.072,-4c0,-4.415 -3.585,-8 -8,-8c-4.415,0 -8,3.585 -8,8c0,1.457 0.39,2.823 1.072,4l-5.072,0l0,-26.342c0.626,0.221 1.299,0.342 2,0.342c3.311,0 6,-2.689 6,-6c0,-3.311 -2.689,-6 -6,-6c-0.701,0 -1.374,0.121 -2,0.342l0,-12.342l34.252,0Z"/></clipPath><g clip-path="url(#_clip2)"><path d="M10.495,26l9.889,28.07l30.111,-0.07l0,-44l-40,16Z" style="fill:none;stroke:#2d0045;stroke-opacity:0.618421;stroke-width:4px;"/><path d="M50.495,10l-30,44" style="fill:none;stroke:#2d0045;stroke-opacity:0.842105;stroke-width:2.59px;"/><path d="M10.495,26l40,28" style="fill:none;stroke:#2d0045;stroke-opacity:0.392105;stroke-width:2.59px;"/></g><g id="Nodes"><circle cx="10.572" cy="26.077" r="6.077" style="fill:none;stroke:#e100a0;stroke-width:4px;"/><circle cx="50.516" cy="53.856" r="5.979" style="fill:none;stroke:#a900c0;stroke-width:4px;"/><circle cx="20.495" cy="54" r="8" style="fill:none;stroke:#ff1958;stroke-width:4px;"/><circle cx="50.495" cy="10" r="8" style="fill:none;stroke:#f56f00;stroke-width:4px;"/></g></g></g></svg>